# xmcd CD database file
#
# Track frame offsets:
#	150
#	27431
#	44271
#	64528
#	88037
#	111049
#	125806
#	147254
#	164174
#	179872
#	209866
#	238830
#	258721
#
# Disc length: 3924 seconds
#
# Revision: 0
# Processed by: cddbd v1.5.2PL0 Copyright (c) Steve Scherf et al.
# Submitted via: CDex 1.51
#
DISCID=d40f520d
DTITLE=Tom Waits - This Is My America [CD1)
DYEAR=2008
DGENRE=Blues
TTITLE0=Lucinda - Ain't Going Down To The Well
TTITLE1=Down In The Hole
TTITLE2=Falling Down
TTITLE3=Chocolate Jesus
TTITLE4=All The World Is Green
TTITLE5=Cemetery Polka
TTITLE6=Cause Of It All - 'Till The Morning Runs Out
TTITLE7=Such A Scream
TTITLE8=November
TTITLE9=Hold On
TTITLE10=Black Market Baby
TTITLE11=9th And Hennnepin
TTITLE12=Lie To Me
EXTD=YEAR: 2008
EXTT0=
EXTT1=
EXTT2=
EXTT3=
EXTT4=
EXTT5=
EXTT6=
EXTT7=
EXTT8=
EXTT9=
EXTT10=
EXTT11=
EXTT12=
PLAYORDER=
